<?xml version="1.0" encoding="UTF-8" standalone="no"?>
<svg version="1.1"
     xmlns="http://www.w3.org/2000/svg"
     viewBox="0 0 12.702646 14.52239"
     height="128"
     width="128">
    <defs>
        <style>.cls-1{fill:#f90;}.cls-2{fill:#232f3e;}</style>
    </defs>
    <g transform="translate(-88.889352,-114.44543)"
       id="layer1">
        <path
            d="M 24.521484,1.9648438 C 24.409453,1.9862647 24.070232,2.2296536 24.197266,2.125 24.028757,2.2167583 23.787332,2.3515893 23.480469,2.5234375 22.866741,2.8671338 21.994499,3.3582992 20.951172,3.9511719 18.864518,5.1369173 16.089691,6.7232439 13.308594,8.3183594 10.527496,9.9134749 7.7405301,11.518319 5.6328125,12.738281 4.5789537,13.348262 3.695871,13.861125 3.0664062,14.230469 2.7516739,14.41514 2.4997127,14.565218 2.3222656,14.671875 c -0.088723,0.05333 -0.1591791,0.09455 -0.2109375,0.126953 -0.025879,0.0162 -0.046601,0.03109 -0.064453,0.04297 -0.017852,0.01188 -0.024307,0.01168 -0.058594,0.04297 -1.358e-4,1.24e-4 -0.058458,0.08173 -0.058594,0.08203 -1.358e-4,3.01e-4 -0.011316,0.02881 -0.013672,0.03711 -0.00471,0.01659 -0.00663,0.02402 -0.00781,0.03125 -0.00236,0.01445 -0.00307,0.02375 -0.00391,0.0332 -0.00168,0.0189 -0.00274,0.0375 -0.00391,0.0625 -0.00233,0.05001 -0.0037,0.119536 -0.00586,0.208985 -0.00432,0.178897 -0.00957,0.438794 -0.013672,0.771484 -0.0082,0.66538 -0.0147,1.621967 -0.021484,2.800781 -0.013568,2.357629 -0.024774,5.601736 -0.027344,9.16211 l -0.00781,12.945312 a 0.25111024,0.25111024 0 0 0 0.1269531,0.216797 l 9.9277341,5.726563 9.927735,5.728515 a 0.25111024,0.25111024 0 0 0 0.376953,-0.216797 l 0.04297,-12.753906 c 0.02491,-7.186654 0.01886,-10.465311 0.101563,-11.982422 0.04135,-0.758555 0.12109,-1.072312 0.173828,-1.162109 0.02637,-0.0449 0.03505,-0.05012 0.08594,-0.07813 0.05088,-0.028 0.146138,-0.06573 0.261718,-0.138672 0.01967,-0.01242 0.392268,-0.232012 0.978516,-0.572266 0.586248,-0.340253 1.409936,-0.818266 2.410156,-1.396484 2.000441,-1.156437 4.707697,-2.718925 7.638672,-4.408203 4.111158,-2.369481 6.768312,-3.908381 8.384766,-4.865234 0.808227,-0.478427 1.356045,-0.811778 1.699219,-1.03125 0.171586,-0.109737 0.290469,-0.189028 0.373046,-0.251954 0.04129,-0.03146 0.07145,-0.05551 0.107422,-0.0957 0.01799,-0.0201 0.04197,-0.03887 0.06445,-0.109375 0.0056,-0.01763 0.01167,-0.06542 0.01172,-0.06641 5.3e-5,-9.9e-4 -0.01146,-0.09098 -0.01172,-0.0918 -2.62e-4,-8.19e-4 -0.05216,-0.09115 -0.05273,-0.0918 -2.87e-4,-3.25e-4 -0.03479,-0.03292 -0.03516,-0.0332 -3.65e-4,-2.83e-4 -0.02207,-0.01735 -0.0332,-0.02344 0.01305,0.0071 -0.08334,-0.0468 -0.222657,-0.126954 -0.13932,-0.08015 -0.340435,-0.196628 -0.595703,-0.34375 C 43.05587,12.557319 42.326766,12.136373 41.433594,11.621094 39.647249,10.590536 37.202844,9.1818009 34.533203,7.640625 31.863429,6.0993719 29.423737,4.6937147 27.642578,3.6699219 26.751998,3.1580255 26.02698,2.7412588 25.519531,2.4511719 25.265807,2.3061284 25.065893,2.1915074 24.927734,2.1132812 c -0.06908,-0.039113 -0.123798,-0.068528 -0.162109,-0.089844 -0.01916,-0.010658 -0.03276,-0.018826 -0.04492,-0.025391 -0.01216,-0.00657 -0.04679,-0.022654 -0.04883,-0.023437 -3.61e-4,-1.386e-4 -0.132579,-0.014045 -0.150391,-0.00977 z"
            transform="matrix(0.26458333,0,0,0.26458333,88.889352,114.44543)"
            class="cls-1"/>
        <path
            d="m 45.894531,19.548828 c -0.150149,0.01935 -0.03194,-0.0029 -0.117187,0.02344 -0.0277,0.01567 -0.176821,0.07814 -0.105469,0.05273 -0.04965,0.02707 -0.119815,0.06738 -0.208984,0.117188 -0.178339,0.09961 -0.433411,0.242935 -0.746094,0.419921 -0.625366,0.353974 -1.480946,0.842173 -2.419922,1.378907 l -3.412109,1.951172 a 0.30477713,0.30477713 0 0 0 -0.154297,0.263671 v 6.164063 6.089844 l -0.195313,0.390625 c -0.146543,0.294072 -0.272897,0.434977 -0.578125,0.634765 -0.08654,0.05664 -0.769053,0.462415 -1.720703,1.017578 -0.95165,0.555163 -2.201326,1.27955 -3.519531,2.039063 l -4.794922,2.761719 a 0.30477713,0.30477713 0 0 0 -0.152344,0.263672 v 3.800781 c 0,1.503758 0.0063,2.451318 0.02344,3.027343 0.0086,0.288013 0.01793,0.48185 0.03516,0.619141 0.0086,0.06865 0.01639,0.118574 0.04297,0.189453 0.01329,0.03544 0.02547,0.08154 0.0918,0.142578 0.06633,0.06104 0.237815,0.101745 0.335937,0.0625 0.0019,-7.59e-4 0.03737,-0.01722 0.04883,-0.02344 0.01146,-0.0062 0.02545,-0.0156 0.04297,-0.02539 0.03504,-0.01958 0.08375,-0.0464 0.146484,-0.08203 0.125472,-0.07127 0.307065,-0.174798 0.53711,-0.306641 0.46009,-0.263684 1.116796,-0.640607 1.923828,-1.105468 1.614064,-0.929723 3.825497,-2.207035 6.244141,-3.605469 l 8.794921,-5.083985 a 0.30477713,0.30477713 0 0 0 0.152344,-0.263671 l 0.02148,-10.304688 c 0.0062,-2.833895 0.008,-5.409066 0.0059,-7.277344 -0.0011,-0.934139 -0.0029,-1.692622 -0.0059,-2.216797 -0.0015,-0.262087 -0.0039,-0.463977 -0.0059,-0.603515 -9.71e-4,-0.06977 -7.86e-4,-0.123464 -0.002,-0.162109 -5.84e-4,-0.01932 -9.82e-4,-0.03528 -0.002,-0.05078 -4.86e-4,-0.0077 -0.002,-0.01419 -0.0039,-0.0293 -9.64e-4,-0.0076 -0.0077,-0.0385 -0.0078,-0.03906 -7.2e-5,-2.82e-4 -0.02336,-0.06431 -0.02344,-0.06445 -7.3e-5,-1.42e-4 -0.271411,-0.166016 -0.271485,-0.166016 z"
            transform="matrix(0.26458333,0,0,0.26458333,88.889352,114.44543)"
            class="cls-1"/>
        <g style="fill:#000000"
           transform="matrix(0.26458333,0,0,0.26458333,85.317477,111.78578)"
           id="Product_Icon">
            <path
                style="fill:#000000"
                id="path5859"
                d="m 59.5,30.06 v 20.45 l -18,10.4 v -7.76 l 10,-5.77 a 2,2 0 0 0 1,-1.46 5,5 0 0 0 0,-0.78 V 33.76 l 7,-4 m 1.41,-3 a 0.59,0.59 0 0 0 -0.29,0.07 l -9.55,5.52 c -0.18,0.1 -0.57,0.28 -0.57,0.51 v 12.28 a 4,4 0 0 1 0,0.51 l -10.7,6.17 a 0.6,0.6 0 0 0 -0.29,0.51 v 11 a 0.59,0.59 0 0 0 0.59,0.59 0.6,0.6 0 0 0 0.29,-0.08 l 20.83,-12 a 0.6,0.6 0 0 0 0.29,-0.51 V 27.27 a 0.58,0.58 0 0 0 -0.59,-0.58 z"
                class="cls-2"/>
            <path
                style="fill:#000000"
                id="path5861"
                d="m 35.92,64.94 a 1.58,1.58 0 0 1 -0.79,-0.21 l -20.84,-12 A 1.58,1.58 0 0 1 13.5,51.36 V 24.87 A 1.58,1.58 0 0 1 14.29,23.5 L 37.21,10.27 a 1.56,1.56 0 0 1 1.59,0 l 20.83,12 a 1.59,1.59 0 0 1 0.79,1.37 1.61,1.61 0 0 1 -0.79,1.38 L 37.5,37.82 v 25.54 a 1.56,1.56 0 0 1 -0.79,1.37 1.58,1.58 0 0 1 -0.79,0.21 z M 15.5,51.09 35.5,62.63 V 37.58 A 1.6,1.6 0 0 1 36.29,36.2 L 58,23.68 38,12.13 15.51,25.13 Z M 37.79,12 Z m 0.42,0 z"
                class="cls-2"/>
        </g>
    </g>
</svg>
