<?xml version="1.0" encoding="UTF-8" standalone="no"?>
<svg version="1.1"
     xmlns="http://www.w3.org/2000/svg"
     xmlns:xlink="http://www.w3.org/1999/xlink"
     viewBox="0 0 45.899428 45.890919"
     height="128"
     width="128">
    <defs>
        <linearGradient
            id="linear-gradient"
            x1="31.138"
            x2="32.375999"
            y1="477.548"
            y2="477.548"
            gradientTransform="matrix(30.42866,0,0,-30.42866,-895.584,14684.897)"
            gradientUnits="userSpaceOnUse">
            <stop
                offset="0"
                stop-color="#60b932"
                id="stop4550"/>
            <stop
                offset=".282"
                stop-color="#60b932"
                id="stop4552"/>
            <stop
                offset="1"
                stop-color="#367c34"
                id="stop4554"/>
        </linearGradient>
        <linearGradient
            id="linear-gradient-2"
            x1="30.809999"
            x2="32.048"
            y1="476.94"
            y2="476.94"
            gradientTransform="matrix(27.2148,0,0,-27.2148,-785.193,13061.629)"
            xlink:href="#linear-gradient"/>
        <linearGradient
            id="linear-gradient-3"
            x1="30.641001"
            x2="31.879"
            y1="476.02399"
            y2="476.02399"
            gradientTransform="matrix(25.74947,0,0,-25.74947,-733.989,12385.194)"
            xlink:href="#linear-gradient"/>
        <linearGradient
            id="linear-gradient-4"
            x1="30.802"
            x2="32.040001"
            y1="476.5"
            y2="476.5"
            gradientTransform="matrix(27.09707,0,0,-27.09707,-780.482,13049.4)"
            xlink:href="#linear-gradient"/>
        <linearGradient
            id="linear-gradient-5"
            x1="30.462"
            x2="31.700001"
            y1="475.495"
            y2="475.495"
            gradientTransform="matrix(24.40187,0,0,-24.40187,-687.495,11720.986)"
            xlink:href="#linear-gradient"/>
        <linearGradient
            id="linear-gradient-6"
            x1="30.575001"
            x2="31.813"
            y1="484.41199"
            y2="484.41199"
            gradientTransform="matrix(53.111163,-39.333197,-39.333197,-53.111163,17517.719,27003.503)"
            gradientUnits="userSpaceOnUse">
            <stop
                offset="0"
                stop-color="#4596d8"
                id="stop4561"/>
            <stop
                offset=".2"
                stop-color="#4596d8"
                id="stop4563"/>
            <stop
                offset="1"
                stop-color="#fff"
                id="stop4565"/>
        </linearGradient>
        <linearGradient
            id="linear-gradient-7"
            x1="33.693001"
            x2="34.931"
            y1="483.34799"
            y2="483.34799"
            gradientTransform="matrix(76.222166,15.55607,15.55607,-76.222166,-9999.6853,36399.538)"
            gradientUnits="userSpaceOnUse">
            <stop
                offset="0"
                stop-color="#4194d7"
                id="stop4568"/>
            <stop
                offset=".2"
                stop-color="#4194d7"
                id="stop4570"/>
            <stop
                offset="1"
                stop-color="#fff"
                id="stop4572"/>
        </linearGradient>
        <linearGradient
            id="linear-gradient-8"
            x1="32.217999"
            x2="33.456001"
            y1="483.43399"
            y2="483.43399"
            gradientTransform="matrix(70.222269,-12.666615,-12.666615,-70.222269,3950.1157,34433.48)"
            gradientUnits="userSpaceOnUse">
            <stop
                offset="0"
                stop-color="#4194d7"
                id="stop4575"/>
            <stop
                offset=".333"
                stop-color="#4496d8"
                id="stop4577"/>
            <stop
                offset="1"
                stop-color="#fff"
                id="stop4579"/>
        </linearGradient>
        <clipPath
            id="clip-path">
            <path
                d="M 88.068,152.07 53.817,136.977 51.91,158.529 89.575,170.496 Z"
                class="cls-1"
                id="path4582"/>
        </clipPath>
        <clipPath
            id="clip-path-2">
            <path
                d="m 60.523,68.689 h 19.234 v 16.409 h -4.565 v -7.009 a 5.053,5.053 0 1 0 -10.105,0 v 7.009 h -4.564 z m -3.843,35.94 28.536,12.575 -1.967,-24.065 h 3.734 v -8.041 h -2.77 v -16.41 h 2.77 v -4.716 l -15.39,-15.06 v -1.06 a 1.453,1.453 0 0 0 -2.905,0 v 1.06 l -15.392,15.06 v 4.717 h 2.772 v 16.409 h -2.772 v 8.041 h 4.4 z"
                class="cls-1"
                id="path4585"/>
        </clipPath>
        <clipPath
            id="clip-path-3">
            <path
                d="M 55.009,123.515 86.881,137.561 86.403,131.712 55.488,118.09 Z"
                class="cls-1"
                id="path4588"/>
        </clipPath>
        <clipPath
            id="clip-path-4">
            <path
                d="m 54.173,132.958 33.54,14.781 -0.477,-5.847 -32.582,-14.358 z"
                class="cls-1"
                id="path4591"/>
        </clipPath>
        <clipPath
            id="clip-path-5">
            <path
                d="m 56.325,108.646 -0.481,5.427 30.205,13.309 -0.478,-5.848 z"
                class="cls-1"
                id="path4594"/>
        </clipPath>
        <clipPath
            id="clip-path-6">
            <path
                d="M 157.275,34.867 A 87.46,87.46 0 0 0 142.433,20.832 89.613,89.613 0 0 0 140.045,19.126 L 128.791,30.83 87.713,73.55 144.277,44.278 158.779,36.773 c -0.502,-0.635 -0.985,-1.285 -1.504,-1.906 z"
                class="cls-1"
                id="path4597"/>
        </clipPath>
        <clipPath
            id="clip-path-7">
            <path
                d="m 177.461,89.754 c -0.008,-0.992 -0.067,-1.972 -0.109,-2.956 l -16.071,-1.153 -73.568,-5.28 72.173,25.04 15.172,5.263 c 0.045,-0.18 0.096,-0.356 0.139,-0.538 a 86.632,86.632 0 0 0 2.28,-19.69 c 0,-0.23 -0.014,-0.457 -0.016,-0.686 z"
                class="cls-1"
                id="path4600"/>
        </clipPath>
        <clipPath
            id="clip-path-8">
            <path
                d="m 175.093,70.298 a 86.083,86.083 0 0 0 -6.9,-18.808 l -15.435,4.96 -63.931,20.544 70.832,-2.411 16.215,-0.553 c -0.241,-1.25 -0.487,-2.5 -0.781,-3.732 z"
                class="cls-1"
                id="path4603"/>
        </clipPath>
        <style
            id="style4606">.cls-1{fill:none}.cls-3{fill:#696566}
        </style>
        <linearGradient
            xlink:href="#linear-gradient"
            id="linearGradient4652"
            gradientUnits="userSpaceOnUse"
            gradientTransform="matrix(30.42866,0,0,-30.42866,-895.584,14684.897)"
            x1="31.138"
            y1="477.548"
            x2="32.375999"
            y2="477.548"/>
    </defs>
    <g
        transform="translate(-27.797255,-138.07198)"
        id="layer1">
        <g
            transform="matrix(0.26458333,0,0,0.26458333,26.73923,137.08386)"
            id="g12">
            <path
                d="M 16.471,90.44 A 74.268,74.268 0 1 1 90.74,164.707 74.268,74.268 0 0 1 16.47,90.439"
                fill="#ffffff"
                id="path14"/>
            <g
                clip-path="url(#clip-path)"
                id="g30">
                <g
                    id="g32">
                    <path
                        style="fill:url(#linearGradient4652)"
                        d="M 88.068,152.07 53.818,136.977 51.91,158.529 89.575,170.496 88.068,152.07"
                        fill="url(#linear-gradient)"
                        id="path46"/>
                </g>
            </g>
            <g
                clip-path="url(#clip-path-2)"
                id="g48">
                <g
                    id="g50">
                    <path
                        style="fill:url(#linear-gradient-2)"
                        d="m 60.523,68.689 h 19.234 v 16.409 h -4.565 v -7.009 a 5.053,5.053 0 1 0 -10.105,0 v 7.009 h -4.564 z m -3.843,35.94 28.536,12.575 -1.967,-24.065 h 3.734 v -8.041 h -2.77 v -16.41 h 2.77 v -4.716 l -15.39,-15.06 v -1.06 a 1.453,1.453 0 0 0 -2.905,0 v 1.06 l -15.392,15.06 v 4.717 h 2.772 v 16.409 h -2.772 v 8.041 h 4.4 l -1.016,11.49"
                        fill="url(#linear-gradient-2)"
                        id="path64"/>
                </g>
            </g>
            <g
                clip-path="url(#clip-path-3)"
                id="g66">
                <g
                    id="g68">
                    <path
                        style="fill:url(#linear-gradient-3)"
                        d="m 55.009,123.515 31.871,14.045 -0.478,-5.85 -30.915,-13.621 -0.48,5.425"
                        fill="url(#linear-gradient-3)"
                        id="path82"/>
                </g>
            </g>
            <g
                clip-path="url(#clip-path-4)"
                id="g84">
                <g
                    id="g86">
                    <path
                        style="fill:url(#linear-gradient-4)"
                        d="m 54.173,132.958 33.54,14.781 -0.477,-5.847 -32.582,-14.358 -0.48,5.424"
                        fill="url(#linear-gradient-4)"
                        id="path100"/>
                </g>
            </g>
            <g
                clip-path="url(#clip-path-5)"
                id="g102">
                <g
                    id="g104">
                    <path
                        style="fill:url(#linear-gradient-5)"
                        d="m 56.325,108.646 -0.48,5.427 30.204,13.309 -0.478,-5.848 -29.246,-12.888"
                        fill="url(#linear-gradient-5)"
                        id="path118"/>
                </g>
            </g>
            <path
                class="cls-3"
                d="m 152.758,56.45 15.435,-4.96 c -0.056,-0.11 -0.103,-0.225 -0.159,-0.332 a 87.01,87.01 0 0 0 -9.255,-14.385 l -14.502,7.505 a 71.197,71.197 0 0 1 8.344,11.907 c 0.048,0.086 0.09,0.177 0.137,0.264"
                id="path120"/>
            <path
                class="cls-3"
                d="m 161.28,85.645 16.072,1.153 A 86.238,86.238 0 0 0 175.874,74.03 l -16.215,0.552 a 70.327,70.327 0 0 1 1.622,11.063"
                id="path122"/>
            <path
                class="cls-3"
                d="M 90.74,161.193 A 70.754,70.754 0 1 1 128.79,30.83 l 11.254,-11.704 a 86.723,86.723 0 1 0 35.013,91.542 l -15.172,-5.264 a 70.867,70.867 0 0 1 -69.146,55.79"
                id="path124"/>
            <g
                clip-path="url(#clip-path-6)"
                id="g126">
                <g
                    id="g128">
                    <path
                        style="fill:url(#linear-gradient-6)"
                        d="M 157.275,34.867 A 87.46,87.46 0 0 0 142.433,20.832 89.613,89.613 0 0 0 140.045,19.126 L 128.791,30.83 87.713,73.55 144.277,44.278 158.779,36.773 c -0.502,-0.635 -0.985,-1.285 -1.504,-1.906"
                        fill="url(#linear-gradient-6)"
                        id="path142"/>
                </g>
            </g>
            <g
                clip-path="url(#clip-path-7)"
                id="g144">
                <g
                    id="g146">
                    <path
                        style="fill:url(#linear-gradient-7)"
                        d="m 177.461,89.754 c -0.008,-0.992 -0.067,-1.972 -0.109,-2.956 l -16.071,-1.153 -73.568,-5.28 72.173,25.04 15.172,5.263 c 0.045,-0.18 0.096,-0.356 0.139,-0.538 a 86.632,86.632 0 0 0 2.28,-19.69 c 0,-0.23 -0.014,-0.457 -0.016,-0.686"
                        fill="url(#linear-gradient-7)"
                        id="path160"/>
                </g>
            </g>
            <g
                clip-path="url(#clip-path-8)"
                id="g162">
                <g
                    id="g164">
                    <path
                        style="fill:url(#linear-gradient-8)"
                        d="m 175.093,70.298 a 86.083,86.083 0 0 0 -6.9,-18.808 l -15.435,4.96 -63.931,20.544 70.832,-2.411 16.215,-0.553 c -0.241,-1.25 -0.487,-2.5 -0.781,-3.732"
                        fill="url(#linear-gradient-8)"
                        id="path178"/>
                </g>
            </g>
        </g>
    </g>
</svg>
