<?xml version="1.0" encoding="UTF-8"?>
<svg version="1.1"
     xmlns="http://www.w3.org/2000/svg"
     xmlns:xlink="http://www.w3.org/1999/xlink" x="0px" y="0px" width="128" height="128" viewBox="0 0 128 128"
     style="enable-background:new 0 0 128 128;"
     xml:space="preserve">
  <g id="BASE">
    <linearGradient id="SVGID_1_" gradientUnits="userSpaceOnUse" x1="63.9997" y1="7.0336" x2="63.9997" y2="120.7894">
      <stop offset="0" style="stop-color:#4387FD"/>
        <stop offset="1" style="stop-color:#4683EA"/>
    </linearGradient>
      <path style="fill:url(#SVGID_1_);"
            d="M27.7906,115.2166L1.54,69.7493c-2.0541-3.5578-2.0541-7.9412,0-11.499l26.2506-45.4672       c2.0541-3.5578,5.8503-5.7495,9.9585-5.7495h52.5012c4.1082,0,7.9044,2.1917,9.9585,5.7495l26.2506,45.4672       c2.0541,3.5578,2.0541,7.9412,0,11.499l-26.2506,45.4672c-2.0541,3.5578-5.8503,5.7495-9.9585,5.7495H37.7491       C33.6409,120.9661,29.8448,118.7744,27.7906,115.2166z"/>
  </g>
    <g id="shadow">
    <g>
      <defs>
        <path id="SVGID_5_"
              d="M27.7911,115.2166L1.5406,69.7493c-2.0541-3.5578-2.0541-7.9412,0-11.499l26.2505-45.4672             c2.0541-3.5578,5.8502-5.7495,9.9585-5.7495h52.501c4.1082,0,7.9044,2.1917,9.9585,5.7495l26.2505,45.4672             c2.0541,3.5578,2.0541,7.9412,0,11.499l-26.2505,45.4672c-2.0541,3.5578-5.8502,5.7495-9.9585,5.7495h-52.501             C33.6413,120.9661,29.8452,118.7744,27.7911,115.2166z"/>
      </defs>
        <clipPath id="SVGID_2_">
        <use xlink:href="#SVGID_5_" style="overflow:visible;"/>
      </clipPath>
        <polygon style="opacity:0.07;clip-path:url(#SVGID_2_);"
                 points="125.4062,74.8436 96.0469,45.4842 83.75,42.4999          81.8542,44.4478 91.3281,53.9218 91.4271,66.9061 71.8854,47.3645 56,47.3332 46,37.3332 35.5,46.2499 31.9056,82.468          71.7188,122.2811 97.5,122.2499      "/>
    </g>
  </g>
    <g id="art">
    <g>
      <g>
        <polygon style="fill:#FFFFFF;" points="56,56.6249 64,61.2499 72,56.6249 72,47.3749 64,42.7499 56,47.3749"/>
      </g>
        <g>
        <polygon style="fill:#FFFFFF;" points="67,75.4999 75,80.1249 83,75.4999 83,66.2499 75,61.6249 67,66.2499"/>
      </g>
        <g>
        <polygon style="fill:#FFFFFF;" points="45,75.7501 53,80.3751 61,75.7501 61,66.5001 53,61.8751 45,66.5001"/>
      </g>
    </g>
        <g>
      <polygon style="fill:#FFFFFF;"
               points="46,44.4387 38,49.0575 38,78.943 46,83.5593 46,90.6495 32,82.5631 32,45.4371 46,37.3542"/>
    </g>
        <g>
      <polygon style="fill:#FFFFFF;"
               points="82,44.4387 90,49.0575 90,78.943 82,83.5593 82,90.6495 96,82.5631 96,45.4371 82,37.3542"/>
    </g>
  </g>
    <g id="Guides"></g>
</svg>
